<?xml version="1.0" encoding="UTF-8" standalone="no"?>
<!-- Created with Inkscape (http://www.inkscape.org/) -->

<svg
   xmlns:dc="http://purl.org/dc/elements/1.1/"
   xmlns:cc="http://creativecommons.org/ns#"
   xmlns:rdf="http://www.w3.org/1999/02/22-rdf-syntax-ns#"
   xmlns:svg="http://www.w3.org/2000/svg"
   xmlns="http://www.w3.org/2000/svg"
   xmlns:sodipodi="http://sodipodi.sourceforge.net/DTD/sodipodi-0.dtd"
   xmlns:inkscape="http://www.inkscape.org/namespaces/inkscape"
   width="114.84583mm"
   height="2.902894mm"
   viewBox="0 0 114.84583 2.902894"
   version="1.1"
   id="svg8"
   inkscape:version="0.92.4 (5da689c313, 2019-01-14)"
   sodipodi:docname="stroke_title.svg">
  <defs
     id="defs2" />
  <sodipodi:namedview
     id="base"
     pagecolor="#ffffff"
     bordercolor="#666666"
     borderopacity="1.0"
     inkscape:pageopacity="0.0"
     inkscape:pageshadow="2"
     inkscape:zoom="1.979899"
     inkscape:cx="170.27217"
     inkscape:cy="-123.15133"
     inkscape:document-units="mm"
     inkscape:current-layer="layer1"
     showgrid="false"
     inkscape:window-width="1920"
     inkscape:window-height="1013"
     inkscape:window-x="-9"
     inkscape:window-y="1345"
     inkscape:window-maximized="1"
     fit-margin-top="0"
     fit-margin-left="0"
     fit-margin-right="0"
     fit-margin-bottom="0" />
  <metadata
     id="metadata5">
    <rdf:RDF>
      <cc:Work
         rdf:about="">
        <dc:format>image/svg+xml</dc:format>
        <dc:type
           rdf:resource="http://purl.org/dc/dcmitype/StillImage" />
        <dc:title></dc:title>
      </cc:Work>
    </rdf:RDF>
  </metadata>
  <g
     inkscape:label="レイヤー 1"
     inkscape:groupmode="layer"
     id="layer1"
     transform="translate(-0.65527855,-1.1299977)">
    <path
       style="fill:#000000;fill-opacity:1;stroke-width:0.18211222;stroke-miterlimit:4;stroke-dasharray:none"
       id="path907"
       d="m 0.66031279,3.3969095 c 0.324329,-0.0386 0.62025601,-0.14259 0.94520601,-0.18359 0.160746,-0.0204 0.325573,-0.0201 0.485051,-0.0456 0.180285,-0.0289 0.354111,-0.0783 0.531166,-0.11736 2.08404,-0.38035 -1.035167,0.16619 1.372901,-0.16972 0.264093,-0.037 0.518185,-0.10846 0.779056,-0.15716 0.284761,-0.0532 0.569551,-0.10725 0.857596,-0.14845 0.2828828,-0.0405 1.7433178,-0.1971 1.9999958,-0.22507 0.361061,-0.0487 0.718031,-0.12142 1.083183,-0.14607 4.2430814,-0.28649 -1.870147,0.29652 2.4705394,-0.0828 0.424922,-0.0371 0.842834,-0.11679 1.268705,-0.14685 1.06453,-0.075 1.707476,-0.0268 2.780416,0.007 2.415831,-0.19519 0.381292,-0.0587 2.849113,-0.14396 2.728982,-0.0942 0.171157,-0.0638 2.925069,-0.0822 0.487693,-0.004 0.976123,0.0136 1.463101,-0.007 0.479929,-0.0194 0.956333,-0.0738 1.434497,-0.11068 2.062826,0.0529 0.923958,0.0426 2.976609,0.021 0.493529,-0.005 0.987331,-0.002 1.480628,-0.0142 1.181952,-0.0286 1.801011,-0.0981 2.986965,-0.0851 0.514707,0.005 1.028364,0.0403 1.542546,0.0606 0.504574,-0.0313 1.007647,-0.0831 1.513719,-0.0939 0.52516,-0.0112 1.050565,0.026 1.575987,0.0276 0.525278,0.002 1.05029,-0.0175 1.57556,-0.018 1.671483,-0.002 1.91206,0.0343 3.524962,0.006 0.5661,-0.01 1.131561,-0.0341 1.697342,-0.0514 3.974956,0.22986 -0.66566,0.003 3.460613,0.0693 0.594836,0.009 1.186917,0.088 1.781799,0.0854 0.628179,-0.003 1.251513,-0.094 1.879602,-0.10195 0.624603,-0.008 1.24876,0.0363 1.873142,0.0543 0.644337,-0.0155 1.288672,-0.0309 1.933006,-0.0464 1.945122,-0.11487 1.982317,-0.16427 3.929144,-0.0919 0.650376,0.0241 1.296984,0.0984 1.947462,0.12064 0.666456,0.0224 1.333923,0.0132 2.000899,0.0138 0.980685,10e-4 3.132035,-0.0164 4.108398,-0.023 4.878318,-0.0384 -0.699253,-0.0322 4.116208,0.0785 0.69852,0.016 1.3975,-0.007 2.096209,10e-5 0.695137,0.007 1.389888,0.0328 2.08497,0.0438 0.69245,0.0109 1.385738,0.0453 2.077521,0.0225 0.714969,-0.0239 1.424173,-0.10869 2.136259,-0.16306 4.042357,0.33533 -0.04653,0.0708 4.043638,0.10853 0.648608,0.006 1.293959,0.0905 1.942584,0.0944 0.655693,0.005 1.309243,-0.0579 1.964673,-0.0706 1.89193,-0.037 1.83809,-0.007 3.69508,0.0867 1.15906,-0.073 2.29756,0.15298 3.44917,0.17501 4.773035,0.0916 -1.31116,-0.22117 3.315735,-0.0323 2.76622,0.11284 0.32815,0.15696 3.10332,0.0418 3.373862,0.24453 -0.46082,0.0344 2.984452,0.007 0.41241,-0.004 0.82172,0.0913 1.23373,0.0778 0.47177,-0.0156 0.92997,-0.13194 1.40024,-0.1646 1.2432,-0.0862 1.73498,-0.0189 2.98578,0.0508 3.35058,-0.51557 -0.57545,0.0504 2.83705,-0.32018 0.45797,-0.0498 0.906,-0.14555 1.36323,-0.19916 1.75174,-0.15386 0.89582,-0.0602 2.5685,-0.27677 0.0691,-0.0219 0.46954,0.74224 0.40051,0.76417 v 0 c -1.03458,0.0498 -1.59723,0.0455 -2.61975,0.22347 -0.45074,0.0783 -0.87149,0.25958 -1.33037,0.30102 -0.99067,0.0895 -2.00693,-0.2159 -2.99225,0.0465 -0.9718,0.10764 -1.91568,0.23451 -2.90062,0.25382 -0.4963,0.0101 -0.99267,-0.0467 -1.48894,-0.0368 -0.57523,0.0118 -1.146,0.0852 -1.72097,0.10218 -0.93217,0.0276 -2.05143,-0.0273 -2.981582,-0.0596 -4.114415,0.17869 0.977992,0.0338 -3.08943,-0.0923 -0.55202,-0.0171 -1.102625,0.0569 -1.654945,0.0612 -0.55359,0.004 -1.10693,-0.0252 -1.66047,-0.0353 -6.10553,-0.11434 2.766325,0.0634 -3.48511,-0.0638 -0.6282,0.0564 -1.25239,0.15339 -1.88458,0.169 -0.62059,0.0154 -1.24044,-0.0518 -1.86073,-0.0767 -0.63811,-0.0255 -1.27632,-0.0495 -1.914448,-0.0749 -0.6497,-0.0259 -1.298712,-0.0865 -1.949022,-0.0789 -0.689989,0.008 -1.373422,0.11967 -2.063458,0.12551 -0.677706,0.006 -1.353619,-0.0606 -2.030432,-0.091 -0.693165,-0.003 -1.386331,-0.006 -2.079487,-0.009 -0.679186,-0.047 -1.356025,-0.1305 -2.037553,-0.14113 -0.70862,-0.0102 -1.414954,0.0663 -2.123489,0.0762 -0.697259,0.01 -1.394811,-0.019 -2.092222,-0.0169 -3.551674,0.009 -0.612409,0.0782 -4.128882,-0.0437 -0.687413,0.003 -1.374835,0.007 -2.062244,0.011 -0.684016,0.016 -1.367686,0.0438 -2.052045,0.048 -4.211989,0.0257 0.205675,-0.0477 -3.950665,-0.11448 -0.65749,-0.0112 -1.314834,0.0189 -1.972251,0.0282 -0.639422,-0.0168 -1.278822,-0.0346 -1.918247,-0.0515 -0.978364,0.006 -2.837882,0.0166 -3.820077,0.0282 -0.619115,0.008 -1.237934,0.0273 -1.857136,0.0303 -1.749624,0.008 -3.500987,-0.0364 -5.245947,-0.14293 -1.589096,0.0766 -1.776236,0.10716 -3.353492,0.0996 -0.445279,-0.002 -0.890171,-0.037 -1.335361,-0.0318 -0.52009,0.006 -1.037802,0.0779 -1.557859,0.0672 -0.539923,-0.0115 -1.071832,-0.12874 -1.611881,-0.13284 -0.50484,-0.004 -1.005059,0.0728 -1.507585,0.10914 -0.49938,0.0211 -0.997932,0.0625 -1.498137,0.0632 -2.440647,0.003 -0.618783,-0.14001 -3.034582,-0.0568 -0.484389,0.0166 -0.96389,0.0945 -1.448765,0.0993 -4.398093,0.0438 1.302574,-0.22904 -2.96066,0.0122 -0.486935,0.0101 -0.974005,0.0175 -1.460789,0.0311 -0.481708,0.0135 -0.962536,0.0464 -1.444575,0.0503 -0.494738,0.004 -0.989798,-0.0428 -1.484063,-0.0267 -0.478711,0.0156 -0.949927,0.10466 -1.428547,0.12182 -0.486813,0.0173 -0.974751,-0.0125 -1.462138,-0.0183 -0.471753,0.0204 -0.943503,0.0405 -1.415255,0.061 -0.474139,-0.0145 -0.94886,-0.0633 -1.422429,-0.0426 -0.435531,0.0193 -0.858066,0.12518 -1.291687,0.16173 -0.430071,0.0361 -0.864394,0.0324 -1.295941,0.0563 -1.175332,0.0649 -2.3445534,0.19893 -3.5254534,0.19733 -0.705698,0.0867 -1.259304,0.1621 -1.967093,0.22019 -0.2978598,0.0245 -0.5984838,0.0273 -0.8957058,0.056 -0.266444,0.0257 -0.526925,0.0824 -0.793565,0.10674 -0.251364,0.023 -0.50876,0.002 -0.758067,0.0352 -0.203838,0.0276 -0.393985,0.0983 -0.590978,0.14742 -0.168591,0.0492 -0.328081,0.12477 -0.505776,0.14752 -0.16995,0.0218 -0.346114,-0.0357 -0.516602,-0.0164 -0.116973,0.0132 -0.213283,0.08 -0.324553,0.11084 -0.204376,0.0568 -0.386275,0.009 -0.523354,0.13321 -0.05733,0.0247 -0.50792001,-0.61022 -0.45059901,-0.63495 z"
       inkscape:connector-curvature="0" />
  </g>
</svg>
